ETC1337 Presents Tony Roberts : Wired A Showtime Special


Detroit native Tony Roberts brings the house down with this energetic standup comedy performance filmed in front of a raucous Hollywood, California audience.



Showtime Rip

A-8/9
V-6/7

Format                           : AVI
Format/Info                      : Audio Video Interleave
File size                        : 860 MiB
Duration                         : 59mn 55s
Overall bit rate                 : 2 006 Kbps

Video
ID                               : 0
Format                           : MPEG-4 Visual
Format profile                   : Simple@L1
Format settings, BVOP            : No
Format settings, QPel            : No
Format settings, GMC             : No warppoints
Format settings, Matrix          : Default (H.263)
Codec ID                         : DX50
Codec ID/Hint                    : DivX 5
Duration                         : 59mn 55s
Bit rate                         : 1 800 Kbps
Width                            : 640 pixels
Height                           : 368 pixels
Display aspect ratio             : 16:9
Frame rate                       : 29.970 fps
Color space                      : YUV
Chroma subsampling               : 4:2:0
Bit depth                        : 8 bits
Scan type                        : Progressive
Compression mode                 : Lossy
Bits/(Pixel*Frame)               : 0.255
Stream size                      : 772 MiB (90%)
Writing library                  : Lavc52.0.0

Audio
ID                               : 1
Format                           : MPEG Audio
Format version                   : Version 1
Format profile                   : Layer 3
Mode                             : Joint stereo
Mode extension                   : MS Stereo
Codec ID                         : 55
Codec ID/Hint                    : MP3
Duration                         : 59mn 55s
Bit rate mode                    : Constant
Bit rate                         : 192 Kbps
Channel(s)                       : 2 channels
Sampling rate                    : 48.0 KHz
Compression mode                 : Lossy
Stream size                      : 82.3 MiB (10%)
Alignment                        : Split accross interleaves
Interleave, duration             : 24 ms (0.72 video frame)
Interleave, preload duration     : 69 ms



Please Seed,Comment & Enjoy!